<?xml version="1.0" standalone="no"?>
<!DOCTYPE svg PUBLIC "-//W3C//DTD SVG 20010904//EN"
 "http://www.w3.org/TR/2001/REC-SVG-20010904/DTD/svg10.dtd">
<svg version="1.0" xmlns="http://www.w3.org/2000/svg"
 width="560.000000pt" height="560.000000pt" viewBox="0 0 560.000000 560.000000"
 preserveAspectRatio="xMidYMid meet">
<metadata>
Created by potrace 1.11, written by Peter Selinger 2001-2013
</metadata>
<g transform="translate(0.000000,560.000000) scale(0.100000,-0.100000)"
fill="#000000" stroke="none">
<path d="M1391 5508 c-18 -24 -61 -83 -96 -133 -35 -49 -71 -99 -79 -110 -18
-22 -489 -679 -508 -709 -7 -10 -22 -31 -34 -45 -20 -26 -176 -243 -204 -284
-21 -31 -113 -160 -123 -172 -4 -5 -84 -116 -177 -245 -182 -254 -176 -239
-126 -301 12 -14 28 -36 36 -48 28 -41 189 -266 205 -286 9 -11 24 -32 33 -47
9 -16 20 -28 24 -28 4 0 8 -5 8 -10 0 -6 5 -16 11 -23 13 -16 197 -271 229
-319 14 -21 28 -38 33 -38 4 0 7 -5 7 -10 0 -6 5 -16 10 -23 12 -13 13 -15
286 -397 101 -140 203 -282 227 -315 24 -33 94 -130 156 -216 l112 -156 1322
2 c727 1 1323 3 1325 3 1 1 -37 39 -84 85 -48 45 -108 102 -134 127 -26 25
-80 74 -119 110 l-72 65 -1017 1 c-559 1 -1019 2 -1022 3 -3 1 -16 18 -30 38
-14 21 -30 45 -37 53 -7 8 -92 128 -191 265 -245 344 -270 379 -280 390 -4 6
-30 42 -56 80 -27 39 -57 79 -67 91 -11 11 -19 25 -19 31 0 6 -4 13 -8 15 -5
2 -28 32 -53 68 -24 36 -46 67 -49 70 -3 3 -23 30 -45 60 -22 30 -43 57 -47
58 -5 2 -8 8 -8 12 0 9 -185 270 -214 303 -9 9 -16 21 -16 26 0 5 -5 11 -11
13 -6 2 58 99 143 217 84 117 158 220 163 229 6 10 13 19 16 22 3 3 21 28 39
55 19 28 38 55 42 60 5 6 22 28 38 50 16 22 33 45 37 50 5 6 24 33 42 60 19
28 37 52 40 55 4 3 11 13 16 22 14 23 267 377 280 391 6 7 26 35 45 62 19 28
38 55 42 60 5 6 45 62 90 125 45 63 87 120 93 126 8 8 338 11 1187 11 l1176 1
63 -87 c35 -47 66 -90 68 -96 2 -5 7 -12 11 -15 3 -3 22 -27 41 -55 18 -27 37
-51 42 -53 4 -2 7 -10 7 -17 0 -7 4 -15 8 -17 4 -1 23 -25 42 -53 19 -27 37
-52 40 -55 3 -3 41 -54 83 -115 43 -60 84 -118 92 -128 8 -9 15 -22 15 -27 0
-6 3 -10 8 -10 4 0 18 -17 32 -38 50 -75 125 -177 133 -180 4 -2 7 -9 7 -14 0
-6 7 -18 15 -27 9 -9 46 -59 82 -111 37 -52 71 -99 76 -105 4 -5 49 -68 100
-139 l92 -130 238 0 c174 -1 237 2 237 11 0 6 -3 13 -7 15 -5 2 -28 32 -52 68
-25 36 -47 67 -50 70 -4 3 -22 28 -41 55 -19 28 -38 52 -42 53 -4 2 -8 8 -8
12 0 5 -23 40 -50 77 -28 37 -58 79 -68 92 -9 14 -32 44 -49 68 -18 24 -33 45
-33 48 0 3 -7 13 -15 22 -12 15 -191 263 -227 316 -7 10 -19 26 -26 35 -7 9
-76 105 -152 212 -77 107 -146 204 -154 215 -8 11 -49 67 -90 125 -41 58 -79
110 -84 115 -4 6 -30 42 -57 80 -26 39 -66 94 -87 123 l-39 52 -1378 0 -1379
0 -31 -42z"/>
<path d="M1530 3992 c0 -3 13 -17 29 -31 28 -25 231 -215 329 -308 24 -24 47
-44 51 -44 3 -1 464 -2 1023 -3 l1017 -1 75 -105 c41 -58 78 -109 83 -115 5
-5 24 -32 43 -60 29 -43 82 -116 108 -150 45 -59 229 -320 237 -335 5 -11 13
-20 17 -20 3 0 17 -17 29 -37 13 -21 37 -56 54 -79 39 -52 45 -61 172 -239 59
-82 110 -152 113 -155 3 -3 16 -22 29 -43 13 -21 28 -43 35 -50 25 -26 136
-188 136 -198 0 -10 -28 -54 -53 -84 -4 -5 -98 -136 -208 -290 -110 -154 -205
-287 -212 -295 -7 -8 -21 -28 -31 -45 -11 -16 -23 -34 -28 -40 -5 -5 -61 -82
-124 -170 -63 -88 -127 -177 -142 -197 -15 -20 -96 -134 -180 -252 l-154 -214
-1176 0 -1177 0 -27 31 c-15 18 -27 37 -28 44 0 6 -4 13 -8 15 -7 3 -125 162
-172 232 -17 25 -81 114 -421 586 -132 184 -248 346 -257 360 -9 14 -21 30
-27 36 -5 6 -17 22 -25 34 -8 12 -33 47 -56 78 l-40 57 -242 0 c-220 0 -240
-1 -226 -16 8 -8 14 -20 14 -26 0 -6 3 -13 8 -15 11 -5 112 -146 112 -157 0
-5 4 -11 8 -13 4 -1 40 -48 80 -103 39 -55 75 -104 79 -110 5 -5 19 -26 33
-45 13 -19 27 -37 30 -40 3 -3 17 -23 32 -45 45 -69 455 -639 472 -658 9 -9
16 -20 16 -23 0 -4 43 -65 78 -109 4 -5 64 -89 132 -185 69 -96 129 -179 133
-185 4 -5 28 -38 53 -73 l44 -62 1382 2 1382 3 54 75 c29 41 60 84 67 95 8 11
43 59 77 107 35 48 88 121 118 164 30 42 81 112 113 156 31 43 57 83 57 88 0
6 3 10 8 10 4 0 18 17 32 37 14 21 30 45 37 53 7 8 81 111 165 229 222 310
244 341 279 394 18 26 36 47 41 47 4 0 8 6 8 14 0 8 3 16 8 18 4 2 23 26 41
53 19 28 37 52 40 55 4 3 11 12 16 22 10 16 137 194 152 213 4 6 22 30 38 55
17 24 38 53 48 63 17 17 18 20 1 45 -37 58 -139 197 -146 200 -4 2 -8 8 -8 13
0 7 -30 51 -78 114 -4 6 -33 46 -65 90 -31 44 -60 85 -65 90 -4 6 -23 33 -42
60 -19 28 -38 52 -41 55 -3 3 -20 28 -39 55 -19 28 -38 53 -44 57 -7 5 -7 8
-1 8 6 0 5 4 -2 8 -6 4 -48 59 -93 122 -44 63 -86 122 -93 130 -7 8 -48 66
-92 128 -101 141 -332 464 -342 477 -5 6 -16 22 -25 36 -9 14 -23 32 -30 40
-8 8 -23 29 -33 47 -11 17 -23 32 -27 32 -4 0 -8 4 -8 10 0 5 -22 40 -50 77
-27 37 -56 77 -63 88 -15 20 -26 20 -1341 21 -729 0 -1326 -2 -1326 -4z"/>
</g>
</svg>
